<?xml version="1.0" encoding="UTF-8"?>
<svg width="100px" height="100px" viewBox="0 0 100 100" version="1.1" xmlns="http://www.w3.org/2000/svg" xmlns:xlink="http://www.w3.org/1999/xlink">
    <g id="arrow-down" stroke="none" stroke-width="1" fill="none" fill-rule="evenodd">
        <path d="M53.1614576,1.30922748 C53.0877247,1.24763316 53.0046972,1.20490551 52.9286753,1.14775048 C52.7923077,1.04509328 52.6550383,0.947430179 52.5095841,0.857535693 C52.3472747,0.756543157 52.1809422,0.66997811 52.0115579,0.586742614 C51.8705429,0.517934494 51.7316781,0.448571562 51.5844205,0.391416417 C51.3826435,0.312620097 51.176913,0.254910027 50.9691708,0.200529396 C50.8404331,0.166125392 50.7163427,0.124507588 50.5842062,0.0995368593 C49.8821139,-0.0336400929 49.162889,-0.0330851676 48.4608661,0.10064671 C48.3448912,0.122842812 48.2360607,0.160021442 48.1227215,0.188876419 C47.8954883,0.247141301 47.6709603,0.310955321 47.4508021,0.397520368 C47.323313,0.448016636 47.2032456,0.508501105 47.0804038,0.567321025 C46.887644,0.659435098 46.6992541,0.758762858 46.5156503,0.873627958 C46.3935021,0.950759617 46.277874,1.0334403 46.1622459,1.1188955 C46.0721433,1.18548403 45.9747577,1.23653511 45.8877765,1.30922759 L10.0454194,31.1619513 C7.63491654,33.1707036 7.30752324,36.7531637 9.31627558,39.1647763 C11.3228083,41.5774988 14.907488,41.9037822 17.3191006,39.8939202 L42.9138529,18.5760251 C43.2839775,18.2677479 43.8457298,18.530946 43.8457298,19.0126379 L43.8457254,94.0741965 C43.8457251,97.0420641 46.0158997,99.6920714 48.9704036,99.9733966 C52.3595991,100.296113 55.2101631,97.6402641 55.2101631,94.3177914 L55.2101631,19.0181865 C55.2101631,18.5364947 55.7719153,18.2732966 56.1420399,18.5815738 L81.7301335,39.89392 C82.7922197,40.7784369 84.0818165,41.2101522 85.3636446,41.2101522 C86.9928427,41.2101522 88.6098328,40.5131929 89.7329585,39.1647762 C91.7417108,36.7531636 91.4143176,33.1707035 89.0038147,31.1619511 L53.1614576,1.30922748 Z" id="Path" fill="#000000" fill-rule="nonzero" transform="translate(49.5246, 50) rotate(-180) translate(-49.5246, -50)"></path>
    </g>
</svg>