<?xml version="1.0" encoding="UTF-8"?>
<svg width="100px" height="100px" viewBox="0 0 100 100" version="1.1" xmlns="http://www.w3.org/2000/svg" xmlns:xlink="http://www.w3.org/1999/xlink">
    <g id="copy" stroke="none" stroke-width="1" fill="none" fill-rule="evenodd">
        <path d="M16.1161258,31.8258113 L28.2229268,31.8258113 L28.2229268,12.1161258 C28.2229268,8.78092751 29.5843591,5.75034191 31.7788139,3.55588711 C33.9732687,1.3614323 37.0038543,0 40.3390526,0 L84.2809897,0 C87.616188,0 90.6467736,1.3614323 92.8412284,3.55588711 C95.0356832,5.75034191 96.3971155,8.78092751 96.3971155,12.1161258 L96.3971155,56.0580629 C96.3971155,59.3932612 95.0325749,62.4238468 92.8412284,64.6183016 C90.6467736,66.8127564 87.616188,68.1741887 84.2809897,68.1741887 L72.1741887,68.1741887 L72.1741887,87.8838742 C72.1741887,91.2190725 70.8127564,94.2496581 68.6183016,96.4441129 C66.4238468,98.6385677 63.3932612,100 60.0580629,100 L16.1161258,100 C12.7809275,100 9.75034191,98.6385677 7.55588711,96.4441129 C5.3614323,94.2496581 4,91.2190725 4,87.8838742 L4,43.9419371 C4,40.6067388 5.3614323,37.5761532 7.55588711,35.3816984 C9.75034191,33.1872436 12.7809275,31.8258113 16.1161258,31.8258113 Z M37.9955897,31.5326272 L60.5798802,31.5326272 C63.5853303,31.5326272 66.3162844,32.7694577 68.2937753,34.7630705 C70.2712662,36.7566832 71.4980949,39.5099019 71.4980949,42.5398544 L71.4980949,58.401218 L82.4079065,58.401218 C83.7299684,58.401218 84.9343892,57.8533981 85.8054936,56.9723681 C86.6793989,56.0913381 87.2227888,54.877098 87.2227888,53.5470816 L87.2227888,13.6268222 C87.2227888,12.2939819 86.6793989,11.0797419 85.8054936,10.1987119 C84.9315883,9.31768192 83.7271675,8.76986199 82.4079065,8.76986199 L42.810472,8.76986199 C41.4884101,8.76986199 40.2839893,9.31768192 39.4100839,10.1987119 C38.5361786,11.0797419 37.9927888,12.2939819 37.9927888,13.6268222 L37.9927888,31.5326272 L37.9955897,31.5326272 Z M32.3360144,41.5987815 L32.3194127,41.5987815 L32.3028111,41.5987815 L18.526228,41.5987815 C17.2202334,41.5987815 16.0304501,42.1377256 15.1699325,43.004481 C14.3066479,43.8712365 13.769862,45.0658032 13.769862,46.3770486 L13.769862,85.6505145 C13.769862,86.9617599 14.3066479,88.1563266 15.1699325,89.0230821 C16.0332171,89.8898375 17.2230003,90.4287815 18.5289949,90.4287815 L57.645194,90.4287815 C58.9511887,90.4287815 60.1409719,89.8898375 61.0042565,89.0230821 C61.8675411,88.1563266 62.404327,86.9617599 62.404327,85.6505145 L62.404327,65.006734 L62.404327,46.3770486 C62.404327,45.0658032 61.8675411,43.8712365 61.0042565,43.004481 C60.1409719,42.1377256 58.9511887,41.5987815 57.645194,41.5987815 L32.3360144,41.5987815 Z" id="Shape" fill="#555555" fill-rule="nonzero"></path>
    </g>
</svg>