<?xml version="1.0" encoding="UTF-8"?>
<svg width="100px" height="100px" viewBox="0 0 100 100" version="1.1" xmlns="http://www.w3.org/2000/svg" xmlns:xlink="http://www.w3.org/1999/xlink">
    <g id="time" stroke="none" stroke-width="1" fill="none" fill-rule="evenodd">
        <path d="M50,0 C22.439697,0 0,22.439697 0,50.0000758 C0,77.5600758 22.4395455,100.000076 50,100.000076 C77.5604545,100.000076 100,77.5600758 100,50.0000758 C100,22.439697 77.560303,0 50,0 Z M50,9.09090909 C72.6472727,9.09090909 90.9090909,27.3528788 90.9090909,50.0000758 C90.9090909,72.6468939 72.6472727,90.9091667 50,90.9091667 C27.3527273,90.9091667 9.09090909,72.6468939 9.09090909,50.0000758 C9.09090909,27.3528788 27.3527273,9.09090909 50,9.09090909 Z M50,16.6666667 C47.489697,16.6666667 45.4545455,18.7018182 45.4545455,21.2121212 L45.4545455,50.0000758 C45.4545455,51.2552273 45.9577273,52.397197 46.780303,53.2196212 L65.0094697,71.4488636 C66.7845152,73.2240152 69.6737121,73.2240152 71.4488636,71.4488636 C73.2239242,69.6738636 73.2239091,66.7844697 71.4488636,65.0094697 L54.5454545,48.1061364 L54.5454545,21.2121212 C54.5454545,18.7018182 52.5104545,16.6666667 50,16.6666667 Z" id="Shape" fill="#555555" fill-rule="nonzero"></path>
    </g>
</svg>